<svg width="14" height="14" viewBox="0 0 14 14" fill="none" xmlns="http://www.w3.org/2000/svg">
<path fill-rule="evenodd" clip-rule="evenodd" d="M1 11.2618L1 4.4222L7.03378 1L13 4.42298V11.2632L9.92131 13L7.03058 11.3964L4.01474 12.9993L1 11.2618ZM7.27368 10.9914L9.6797 12.326V6.2953L7.27368 4.96063L7.27368 10.9914ZM6.79248 4.95231L4.26015 6.29817V12.3344L6.79248 10.9885L6.79248 4.95231ZM3.77895 12.3182L3.77895 6.29271L1.4812 4.96844L1.4812 10.994L3.77895 12.3182ZM1.71636 4.55882L4.02436 5.889L6.91449 4.35298L9.4217 2.91453L7.03238 1.54371L1.71636 4.55882ZM9.89624 3.18678L7.51359 4.55377L9.91929 5.88827L12.2819 4.55548L9.89624 3.18678ZM12.5188 4.96402L10.1609 6.29416V12.3227L12.5188 10.9925V4.96402Z" fill="black" stroke="black"/>
</svg>
